<svg width="1152" height="36" viewBox="0 0 1152 36" fill="none" xmlns="http://www.w3.org/2000/svg">
<path d="M9 31.5H27M18 4.5V25.5M18 25.5L25.5 18M18 25.5L10.5 18" stroke="#236DB4" stroke-width="3" stroke-linecap="round" stroke-linejoin="round"/>
<path d="M54 32.625C45.9219 32.625 39.375 26.0781 39.375 18C39.375 9.92188 45.9219 3.375 54 3.375C62.0781 3.375 68.625 9.92188 68.625 18C68.625 26.0781 62.0781 32.625 54 32.625ZM54 6.75C47.7891 6.75 42.75 11.7891 42.75 18C42.75 24.2109 47.7891 29.25 54 29.25C60.2148 29.25 65.25 24.2109 65.25 18C65.25 11.7891 60.2148 6.75 54 6.75ZM59.1055 21.9766L57.9648 23.1172C57.7539 23.3281 57.4141 23.3281 57.2031 23.1172L53.9766 19.8906L50.7461 23.1172C50.5352 23.3281 50.1992 23.3281 49.9883 23.1172L48.8477 21.9766C48.6367 21.7695 48.6367 21.4297 48.8477 21.2188L52.0781 17.9883L48.8477 14.7617C48.6367 14.5508 48.6367 14.2109 48.8477 14L49.9883 12.8594C50.1992 12.6523 50.5352 12.6523 50.7461 12.8594L53.9766 16.0898L57.2031 12.8594C57.4141 12.6523 57.7539 12.6523 57.9648 12.8594L59.1055 14C59.3125 14.2109 59.3125 14.5508 59.1055 14.7617L55.875 17.9883L59.1055 21.2188C59.3125 21.4297 59.3125 21.7695 59.1055 21.9766Z" fill="#DF1C09"/>
<path d="M90 32.625C81.9219 32.625 75.375 26.0781 75.375 18C75.375 9.92188 81.9219 3.375 90 3.375C98.0781 3.375 104.625 9.92188 104.625 18C104.625 26.0781 98.0781 32.625 90 32.625ZM90 6.75C83.7891 6.75 78.75 11.7891 78.75 18C78.75 24.2109 83.7891 29.25 90 29.25C96.2148 29.25 101.25 24.2109 101.25 18C101.25 11.7891 96.2148 6.75 90 6.75ZM95.1055 21.9766L93.9648 23.1172C93.7539 23.3281 93.4141 23.3281 93.2031 23.1172L89.9766 19.8906L86.7461 23.1172C86.5352 23.3281 86.1992 23.3281 85.9883 23.1172L84.8477 21.9766C84.6367 21.7695 84.6367 21.4297 84.8477 21.2188L88.0781 17.9883L84.8477 14.7617C84.6367 14.5508 84.6367 14.2109 84.8477 14L85.9883 12.8594C86.1992 12.6523 86.5352 12.6523 86.7461 12.8594L89.9766 16.0898L93.2031 12.8594C93.4141 12.6523 93.7539 12.6523 93.9648 12.8594L95.1055 14C95.3125 14.2109 95.3125 14.5508 95.1055 14.7617L91.875 17.9883L95.1055 21.2188C95.3125 21.4297 95.3125 21.7695 95.1055 21.9766Z" fill="#2E3343"/>
<path d="M135 27L126 18M126 18L117 9M126 18L135 9M126 18L117 27" stroke="#2E3343" stroke-width="3" stroke-linecap="round" stroke-linejoin="round"/>
<path d="M171 27L162 18M162 18L153 9M162 18L171 9M162 18L153 27" stroke="white" stroke-width="3" stroke-linecap="round" stroke-linejoin="round"/>
<path d="M198 3C189.75 3 183 9.75 183 18C183 26.25 189.75 33 198 33C206.25 33 213 26.25 213 18C213 9.75 206.25 3 198 3ZM196.199 25.1992L190.648 19.6484L192.75 17.5508L196.051 20.8516L204.75 11.6992L207 13.9492L196.199 25.1992Z" fill="#6ED11F"/>
<path d="M246.363 5.14453H244.133C244.086 5.14453 244.043 5.16016 244 5.16797V2.82422C244 1.26562 242.703 0 241.109 0H221.746C220.152 0 218.855 1.26562 218.855 2.82422V29.1758C218.855 30.7344 220.152 32 221.746 32H225.145V33.2773C225.145 34.7773 226.391 36 227.922 36H246.363C247.895 36 249.145 34.7773 249.145 33.2773V7.86719C249.145 6.36328 247.895 5.14453 246.363 5.14453ZM220 29.1758V2.82422C220 1.89844 220.785 1.14453 221.746 1.14453H241.109C242.074 1.14453 242.855 1.89844 242.855 2.82422V29.1758C242.855 30.1016 242.074 30.8555 241.109 30.8555H221.746C220.785 30.8555 220 30.1016 220 29.1758ZM248 33.2773C248 34.1484 247.266 34.8555 246.363 34.8555H227.922C227.02 34.8555 226.285 34.1484 226.285 33.2773V32H241.109C242.703 32 244 30.7344 244 29.1758V6.25781C244.043 6.26953 244.086 6.28516 244.133 6.28516H246.363C247.266 6.28516 248 6.99609 248 7.86719V33.2773Z" fill="#2E3343"/>
<path d="M237.715 7.42969H225.145C224.828 7.42969 224.57 7.68359 224.57 8C224.57 8.31641 224.828 8.57031 225.145 8.57031H237.715C238.031 8.57031 238.285 8.31641 238.285 8C238.285 7.68359 238.031 7.42969 237.715 7.42969Z" fill="#2E3343"/>
<path d="M237.715 12H225.145C224.828 12 224.57 12.2539 224.57 12.5703C224.57 12.8867 224.828 13.1445 225.145 13.1445H237.715C238.031 13.1445 238.285 12.8867 238.285 12.5703C238.285 12.2539 238.031 12 237.715 12Z" fill="#2E3343"/>
<path d="M237.715 16.5703H225.145C224.828 16.5703 224.57 16.8281 224.57 17.1445C224.57 17.457 224.828 17.7148 225.145 17.7148H237.715C238.031 17.7148 238.285 17.457 238.285 17.1445C238.285 16.8281 238.031 16.5703 237.715 16.5703Z" fill="#2E3343"/>
<path d="M232 21.1445H225.145C224.828 21.1445 224.57 21.3984 224.57 21.7148C224.57 22.0312 224.828 22.2852 225.145 22.2852H232C232.316 22.2852 232.57 22.0312 232.57 21.7148C232.57 21.3984 232.316 21.1445 232 21.1445Z" fill="#2E3343"/>
<g clip-path="url(#clip0_0_1)">
<path d="M282.363 5.14453H280.133C280.086 5.14453 280.043 5.16016 280 5.16797V2.82422C280 1.26562 278.703 0 277.109 0H257.746C256.152 0 254.855 1.26562 254.855 2.82422V29.1758C254.855 30.7344 256.152 32 257.746 32H261.145V33.2773C261.145 34.7773 262.391 36 263.922 36H282.363C283.895 36 285.145 34.7773 285.145 33.2773V7.86719C285.145 6.36328 283.895 5.14453 282.363 5.14453ZM256 29.1758V2.82422C256 1.89844 256.785 1.14453 257.746 1.14453H277.109C278.074 1.14453 278.855 1.89844 278.855 2.82422V29.1758C278.855 30.1016 278.074 30.8555 277.109 30.8555H257.746C256.785 30.8555 256 30.1016 256 29.1758ZM284 33.2773C284 34.1484 283.266 34.8555 282.363 34.8555H263.922C263.02 34.8555 262.285 34.1484 262.285 33.2773V32H277.109C278.703 32 280 30.7344 280 29.1758V6.25781C280.043 6.26953 280.086 6.28516 280.133 6.28516H282.363C283.266 6.28516 284 6.99609 284 7.86719V33.2773Z" fill="#236DB4" stroke="#236DB4" stroke-width="0.5625"/>
<path d="M273.715 7.42969H261.145C260.828 7.42969 260.57 7.68359 260.57 8C260.57 8.31641 260.828 8.57031 261.145 8.57031H273.715C274.031 8.57031 274.285 8.31641 274.285 8C274.285 7.68359 274.031 7.42969 273.715 7.42969Z" fill="#236DB4" stroke="#236DB4" stroke-width="0.5625"/>
<path d="M273.715 12H261.145C260.828 12 260.57 12.2539 260.57 12.5703C260.57 12.8867 260.828 13.1445 261.145 13.1445H273.715C274.031 13.1445 274.285 12.8867 274.285 12.5703C274.285 12.2539 274.031 12 273.715 12Z" fill="#236DB4" stroke="#236DB4" stroke-width="0.5625"/>
<path d="M273.715 16.5703H261.145C260.828 16.5703 260.57 16.8281 260.57 17.1445C260.57 17.457 260.828 17.7148 261.145 17.7148H273.715C274.031 17.7148 274.285 17.457 274.285 17.1445C274.285 16.8281 274.031 16.5703 273.715 16.5703Z" fill="#236DB4" stroke="#236DB4" stroke-width="0.5625"/>
<path d="M268 21.1445H261.145C260.828 21.1445 260.57 21.3984 260.57 21.7148C260.57 22.0313 260.828 22.2852 261.145 22.2852H268C268.316 22.2852 268.57 22.0313 268.57 21.7148C268.57 21.3984 268.316 21.1445 268 21.1445Z" fill="#236DB4" stroke="#236DB4" stroke-width="0.5625"/>
</g>
<path d="M316.441 4.3125H310.84C310.559 1.89062 308.496 0 306 0C303.504 0 301.441 1.89062 301.16 4.3125H295.559C293.289 4.3125 291.445 6.16016 291.445 8.42578V8.63672C291.445 10.3711 292.523 11.8516 294.043 12.457V31.8867C294.043 34.1562 295.887 36 298.156 36H313.844C316.113 36 317.957 34.1562 317.957 31.8867V12.457C319.477 11.8516 320.555 10.3711 320.555 8.63672V8.42578C320.555 6.16016 318.711 4.3125 316.441 4.3125ZM306 1.94922C307.422 1.94922 308.605 2.96875 308.867 4.3125H303.133C303.395 2.96875 304.578 1.94922 306 1.94922ZM316.008 31.8867C316.008 33.0781 315.035 34.0508 313.844 34.0508H298.156C296.965 34.0508 295.992 33.0781 295.992 31.8867V12.75H316.008V31.8867ZM318.605 8.63672C318.605 9.82812 317.637 10.8008 316.441 10.8008H295.559C294.363 10.8008 293.395 9.82812 293.395 8.63672V8.42578C293.395 7.23438 294.363 6.26172 295.559 6.26172H316.441C317.637 6.26172 318.605 7.23438 318.605 8.42578V8.63672Z" fill="black"/>
<path d="M300.77 31.5547C301.309 31.5547 301.746 31.1172 301.746 30.5781V19.5977C301.746 19.0586 301.309 18.625 300.77 18.625C300.234 18.625 299.797 19.0586 299.797 19.5977V30.5781C299.797 31.1172 300.234 31.5547 300.77 31.5547Z" fill="black"/>
<path d="M306 31.5547C306.539 31.5547 306.977 31.1172 306.977 30.5781V19.5977C306.977 19.0586 306.539 18.625 306 18.625C305.461 18.625 305.023 19.0586 305.023 19.5977V30.5781C305.023 31.1172 305.461 31.5547 306 31.5547Z" fill="black"/>
<path d="M311.23 31.5547C311.766 31.5547 312.203 31.1172 312.203 30.5781V19.5977C312.203 19.0586 311.766 18.625 311.23 18.625C310.691 18.625 310.254 19.0586 310.254 19.5977V30.5781C310.254 31.1172 310.691 31.5547 311.23 31.5547Z" fill="black"/>
<path d="M333 31.5H351M342 4.5V25.5M342 25.5L349.5 18M342 25.5L334.5 18" stroke="#2E3343" stroke-width="3" stroke-linecap="round" stroke-linejoin="round"/>
<path d="M369 31.5H387M378 4.5V25.5M378 25.5L385.5 18M378 25.5L370.5 18" stroke="white" stroke-width="3" stroke-linecap="round" stroke-linejoin="round"/>
<g clip-path="url(#clip1_0_1)">
<path d="M428 9.69532L425.722 11.9727L420.027 6.27345L422.304 3.9922C422.769 3.53126 423.578 3.53126 424.039 3.9922L428 7.96095C428.476 8.43751 428.476 9.21876 428 9.69532ZM408.965 28.75L403.269 23.0469L417.992 8.3047L423.687 14.0078L408.965 28.75ZM401.957 25.7969L406.215 30.0664L400.281 31.7383L401.957 25.7969ZM430.031 5.92579L426.074 1.96095C425.301 1.18751 422.508 -0.27343 420.277 1.96095L400.219 22.0352C400.043 22.2109 399.918 22.4219 399.851 22.6602L396.828 33.4258C396.687 33.9258 396.836 34.4609 397.195 34.832C397.562 35.207 398.293 35.2695 398.601 35.1992L409.359 32.168C409.597 32.1055 409.808 31.9766 409.984 31.8008L430.031 11.7266C431.629 10.1328 431.629 7.53126 430.031 5.92579Z" fill="black"/>
</g>
<path d="M435 3L465 33" stroke="#2E3343" stroke-width="3" stroke-linecap="round" stroke-linejoin="round"/>
<path d="M442.07 10.082C437.496 13.1914 435 18 435 18C435 18 440.453 28.5 450 28.5C453.074 28.5 455.727 27.4102 457.906 25.9336M448.5 7.58594C448.988 7.53125 449.488 7.5 450 7.5C459.547 7.5 465 18 465 18C465 18 463.961 19.9961 462 22.25" stroke="#2E3343" stroke-width="3" stroke-linecap="round" stroke-linejoin="round"/>
<path d="M453 21.3555C452.203 22.0664 451.152 22.5 450 22.5C447.516 22.5 445.5 20.4844 445.5 18C445.5 16.7656 445.996 15.6445 446.805 14.832" stroke="#2E3343" stroke-width="3" stroke-linecap="round" stroke-linejoin="round"/>
<g clip-path="url(#clip2_0_1)">
<path d="M498.734 5.28125C491.711 -1.7539 480.313 -1.76172 473.281 5.26563C466.246 12.2891 466.238 23.6875 473.266 30.7188C480.289 37.7539 491.688 37.7617 498.719 30.7344C505.754 23.7109 505.762 12.3125 498.734 5.28125ZM488.512 29.4219C488.512 29.6992 488.289 29.9258 488.012 29.9258H483.988C483.711 29.9258 483.488 29.6992 483.488 29.4219V14.4961C483.488 14.2148 483.711 13.9922 483.988 13.9922H488.012C488.289 13.9922 488.512 14.2148 488.512 14.4961V29.4219ZM486 11.9063C484.395 11.9063 483.086 10.5977 483.086 8.99219C483.086 7.38282 484.391 6.07422 486 6.07422C487.609 6.07422 488.914 7.38282 488.914 8.99219C488.914 10.5977 487.605 11.9063 486 11.9063Z" fill="#3276C3"/>
</g>
<path d="M521.551 3C521.398 3 521.398 3 521.25 3C521.25 3 521.25 3 521.102 3C520.801 3 520.648 3 520.352 3L520.648 6C521.25 6 522 6 522.602 6C528.602 6.44922 533.551 11.25 533.852 17.3984C534.148 24 529.051 29.6992 522.449 30C522.449 30 522.301 30 522.148 30C521.699 30 521.102 30 520.648 30L520.5 33C521.102 33 521.699 33 522.449 33C522.602 33 522.898 33 523.051 33C531.148 32.3984 537.301 25.5 537 17.3984C536.699 9.75 530.551 3.75 523.051 3.14844C522.75 3.14844 522.602 3.14844 522.301 3.14844C522 3 521.852 3 521.551 3ZM516.301 4.05078C515.551 4.5 514.801 4.80078 514.051 5.25L515.699 7.80078C516.148 7.5 516.75 7.19922 517.352 6.89844L516.301 4.05078ZM510.75 8.10156C510.148 8.69922 509.699 9.44922 509.25 10.0508L511.801 11.5508C512.102 11.1016 512.551 10.6484 513 10.0508L510.75 8.10156ZM527.102 12.6016L520.199 20.3984L516.148 17.25L514.5 19.8008L520.801 24.6016L529.5 14.6992L527.102 12.6016ZM507.602 13.5C507.301 14.25 507.148 15.1484 507.148 15.8984L510.148 16.3516C510.301 15.75 510.301 15 510.602 14.3984L507.602 13.5ZM510.148 19.5L507.148 19.8008C507.148 19.9492 507.148 20.1016 507.148 20.25C507.301 20.8516 507.449 21.6016 507.602 22.1992L510.449 21.3008C510.301 20.8516 510.148 20.25 510.148 19.6484V19.5ZM511.801 24.3008L509.25 25.9492C509.699 26.6992 510.148 27.3008 510.75 27.8984L513 25.9492C512.551 25.3516 512.102 24.8984 511.801 24.3008ZM515.699 28.1992L514.051 30.75C514.801 31.1992 515.551 31.5 516.301 31.9492L517.5 29.25C516.75 28.8008 516.148 28.5 515.699 28.1992Z" fill="#04A1EA"/>
<path d="M558 12C556.344 12 555 10.6563 555 9C555 7.34375 556.344 6 558 6C559.656 6 561 7.34375 561 9C561 10.6563 559.656 12 558 12Z" fill="#2E3343" stroke="#2E3343" stroke-width="1.5"/>
<path d="M558 21C556.344 21 555 19.6563 555 18C555 16.3437 556.344 15 558 15C559.656 15 561 16.3437 561 18C561 19.6563 559.656 21 558 21Z" fill="#2E3343" stroke="#2E3343" stroke-width="1.5"/>
<path d="M558 30C556.344 30 555 28.6563 555 27C555 25.3437 556.344 24 558 24C559.656 24 561 25.3437 561 27C561 28.6563 559.656 30 558 30Z" fill="#2E3343" stroke="#2E3343" stroke-width="1.5"/>
<path d="M592.5 22.5C592.5 24.9844 590.484 27 588 27C585.516 27 583.5 24.9844 583.5 22.5C583.5 20.0156 585.516 18 588 18C590.484 18 592.5 20.0156 592.5 22.5Z" stroke="#0957D0" stroke-width="3" stroke-linecap="round" stroke-linejoin="round"/>
<path d="M591 18.8789L601.629 8.25" stroke="#0957D0" stroke-width="3" stroke-linecap="round" stroke-linejoin="round"/>
<path d="M601.371 10.5L603 12.1289" stroke="#0957D0" stroke-width="3" stroke-linecap="round" stroke-linejoin="round"/>
<path d="M597.621 14.25L599.25 15.8789" stroke="#0957D0" stroke-width="3" stroke-linecap="round" stroke-linejoin="round"/>
<path d="M628.5 22.5C628.5 24.9844 626.484 27 624 27C621.516 27 619.5 24.9844 619.5 22.5C619.5 20.0156 621.516 18 624 18C626.484 18 628.5 20.0156 628.5 22.5Z" stroke="white" stroke-width="3" stroke-linecap="round" stroke-linejoin="round"/>
<path d="M627 18.8789L637.629 8.25" stroke="white" stroke-width="3" stroke-linecap="round" stroke-linejoin="round"/>
<path d="M637.371 10.5L639 12.1289" stroke="white" stroke-width="3" stroke-linecap="round" stroke-linejoin="round"/>
<path d="M633.621 14.25L635.25 15.8789" stroke="white" stroke-width="3" stroke-linecap="round" stroke-linejoin="round"/>
<path d="M668.668 7.5H670C671.258 7.5 671.887 7.5 672.277 7.89453C672.668 8.28906 672.668 8.92578 672.668 10.1992V15M668.668 7.5V8.69922C668.668 9.33594 668.668 9.65625 668.473 9.85156C668.277 10.0508 667.961 10.0508 667.332 10.0508H659.332C658.703 10.0508 658.391 10.0508 658.195 9.85156C658 9.65625 658 9.33594 658 8.69922V7.5M668.668 7.5C668.668 6.86328 668.668 6.39453 668.473 6.19922C668.277 6 667.961 6 667.332 6H659.332C658.703 6 658.391 6 658.195 6.19922C658 6.39453 658 6.86328 658 7.5M658 7.5H656.668C655.41 7.5 654.781 7.5 654.391 7.89453C654 8.28906 654 8.92578 654 10.1992V25.793C654 27.0664 654 27.7031 654.391 28.0977C654.781 28.4922 655.41 28.4922 656.668 28.4922H662.668M669 30H675C676.414 30 677.121 30 677.562 29.5625C678 29.1211 678 28.4141 678 27V21C678 19.5859 678 18.8789 677.562 18.4375C677.121 18 676.414 18 675 18H669C667.586 18 666.879 18 666.438 18.4375C666 18.8789 666 19.5859 666 21V27C666 28.4141 666 29.1211 666.438 29.5625C666.879 30 667.586 30 669 30Z" stroke="#2E3343" stroke-width="1.5" stroke-linecap="round" stroke-linejoin="round"/>
<path d="M690 18H714M702 6V30" stroke="white" stroke-width="3" stroke-linecap="round" stroke-linejoin="round"/>
<path d="M738 33.0156C746.285 33.0156 753 26.3008 753 18.0156C753 9.73047 746.285 3.01562 738 3.01562C729.715 3.01562 723 9.73047 723 18.0156C723 26.3008 729.715 33.0156 738 33.0156Z" fill="white"/>
<path d="M738 10.4102C734.895 10.4102 732.375 12.9297 732.375 16.0352C732.375 19.0781 734.762 21.5547 737.926 21.6445C737.969 21.6445 738.031 21.6445 738.059 21.6445C738.09 21.6445 738.137 21.6445 738.164 21.6445C738.18 21.6445 738.195 21.6445 738.195 21.6445C741.227 21.5391 743.609 19.0781 743.625 16.0352C743.625 12.9297 741.105 10.4102 738 10.4102Z" fill="#2E3343"/>
<path d="M748.172 29.0391C745.5 31.5 741.93 33.0156 738 33.0156C734.07 33.0156 730.5 31.5 727.832 29.0391C728.191 27.6758 729.168 26.4297 730.59 25.4688C734.688 22.7383 741.348 22.7383 745.41 25.4688C746.852 26.4297 747.812 27.6758 748.172 29.0391Z" fill="#2E3343"/>
<g clip-path="url(#clip3_0_1)">
<path d="M774 0C764.059 0 756 8.05859 756 18C756 27.9414 764.059 36 774 36C783.941 36 792 27.9414 792 18C792 8.05859 783.941 0 774 0ZM774 5.38281C777.289 5.38281 779.953 8.05078 779.953 11.3359C779.953 14.625 777.289 17.2891 774 17.2891C770.711 17.2891 768.047 14.625 768.047 11.3359C768.047 8.05078 770.711 5.38281 774 5.38281ZM773.996 31.293C770.715 31.293 767.711 30.0977 765.395 28.1211C764.828 27.6406 764.504 26.9336 764.504 26.1914C764.504 22.8594 767.203 20.1914 770.535 20.1914H777.465C780.801 20.1914 783.488 22.8594 783.488 26.1914C783.488 26.9336 783.164 27.6406 782.598 28.1211C780.281 30.0977 777.277 31.293 773.996 31.293Z" fill="white"/>
</g>
<path d="M820.441 4.3125H814.84C814.559 1.89062 812.496 0 810 0C807.504 0 805.441 1.89062 805.16 4.3125H799.559C797.289 4.3125 795.445 6.16016 795.445 8.42578V8.63672C795.445 10.3711 796.523 11.8516 798.043 12.457V31.8867C798.043 34.1562 799.887 36 802.156 36H817.844C820.113 36 821.957 34.1562 821.957 31.8867V12.457C823.477 11.8516 824.555 10.3711 824.555 8.63672V8.42578C824.555 6.16016 822.711 4.3125 820.441 4.3125ZM810 1.94922C811.422 1.94922 812.605 2.96875 812.867 4.3125H807.133C807.395 2.96875 808.578 1.94922 810 1.94922ZM820.008 31.8867C820.008 33.0781 819.035 34.0508 817.844 34.0508H802.156C800.965 34.0508 799.992 33.0781 799.992 31.8867V12.75H820.008V31.8867ZM822.605 8.63672C822.605 9.82812 821.637 10.8008 820.441 10.8008H799.559C798.363 10.8008 797.395 9.82812 797.395 8.63672V8.42578C797.395 7.23438 798.363 6.26172 799.559 6.26172H820.441C821.637 6.26172 822.605 7.23438 822.605 8.42578V8.63672Z" fill="#E42527"/>
<path d="M804.77 31.5547C805.309 31.5547 805.746 31.1172 805.746 30.5781V19.5977C805.746 19.0586 805.309 18.625 804.77 18.625C804.234 18.625 803.797 19.0586 803.797 19.5977V30.5781C803.797 31.1172 804.234 31.5547 804.77 31.5547Z" fill="#E42527"/>
<path d="M810 31.5547C810.539 31.5547 810.977 31.1172 810.977 30.5781V19.5977C810.977 19.0586 810.539 18.625 810 18.625C809.461 18.625 809.023 19.0586 809.023 19.5977V30.5781C809.023 31.1172 809.461 31.5547 810 31.5547Z" fill="#E42527"/>
<path d="M815.23 31.5547C815.766 31.5547 816.203 31.1172 816.203 30.5781V19.5977C816.203 19.0586 815.766 18.625 815.23 18.625C814.691 18.625 814.254 19.0586 814.254 19.5977V30.5781C814.254 31.1172 814.691 31.5547 815.23 31.5547Z" fill="#E42527"/>
<path d="M844.5 3L847.5 5.99219L847.41 6.08203M847.41 6.08203L844.5 9M847.41 6.08203C846.949 6.02734 846.477 6 846 6C839.371 6 834 11.3711 834 18C834 21.7891 835.758 25.168 838.5 27.3672M847.5 27L844.5 29.8672L844.543 29.9141M844.543 29.9141C845.023 29.9687 845.508 30 846 30C852.629 30 858 24.6289 858 18C858 14.2109 856.242 10.832 853.5 8.63281M844.543 29.9141L847.5 33" stroke="#2E3343" stroke-width="3" stroke-linecap="round" stroke-linejoin="round"/>
<path d="M889.402 6.70703L899.359 16.582L899.445 16.6602C899.777 16.9922 899.973 17.4258 900 17.9414V18.1133C899.973 18.5234 899.816 18.9141 899.512 19.2617L899.395 19.3828L889.402 29.293C888.66 30.0234 887.469 30.0234 886.727 29.293C885.984 28.5547 885.984 27.3555 886.727 26.6211L893.629 19.7734L865.895 19.7773C864.852 19.7773 864 18.9336 864 17.8906C864 16.8477 864.852 16.0039 865.895 16.0039H893.406L886.727 9.37891C885.984 8.64453 885.984 7.44531 886.727 6.70703C887.469 5.97656 888.66 5.97656 889.402 6.70703Z" fill="#2E3343"/>
<path d="M910.043 36C909.512 36 908.977 35.7969 908.57 35.3867C907.754 34.5742 907.754 33.2539 908.57 32.4414L923.012 18L908.57 3.55859C907.754 2.74219 907.754 1.42578 908.57 0.609375C909.383 -0.203125 910.703 -0.203125 911.516 0.609375L927.43 16.5234C928.246 17.3398 928.246 18.6602 927.43 19.4727L911.516 35.3867C911.109 35.7969 910.578 36 910.043 36Z" fill="white"/>
<path d="M946.043 36C945.512 36 944.977 35.7969 944.57 35.3867C943.754 34.5742 943.754 33.2539 944.57 32.4414L959.012 18L944.57 3.55859C943.754 2.74219 943.754 1.42578 944.57 0.609375C945.383 -0.203125 946.703 -0.203125 947.516 0.609375L963.43 16.5234C964.246 17.3398 964.246 18.6602 963.43 19.4727L947.516 35.3867C947.109 35.7969 946.578 36 946.043 36Z" fill="#2E3343"/>
<path d="M1001.36 26.1758L995.863 20.6758C995.043 21.9531 993.957 23.0391 992.68 23.8594L998.18 29.3594C999.062 30.2422 1000.49 30.2422 1001.37 29.3594C1002.25 28.4805 1002.25 27.0508 1001.37 26.1719L1001.36 26.1758Z" fill="#2E3343"/>
<path d="M996 15C996 10.0312 991.969 6 987 6C982.031 6 978 10.0312 978 15C978 19.9688 982.031 24 987 24C991.969 24 996 19.9688 996 15ZM987 21.7617C983.262 21.7617 980.23 18.7344 980.23 14.9961C980.23 11.2578 983.258 8.23047 986.996 8.23047C990.734 8.23047 993.762 11.2617 993.762 15C993.75 18.7305 990.73 21.75 987 21.7617Z" fill="#2E3343"/>
<path d="M981.734 15H983.234C983.234 14 983.629 13.043 984.336 12.3359C985.043 11.6289 986 11.2344 987 11.2344V9.73438C984.094 9.73438 981.734 12.0938 981.734 15Z" fill="#2E3343"/>
<path d="M1026 24.0156C1029.31 24.0156 1032 21.3281 1032 18.0156C1032 14.7031 1029.31 12.0156 1026 12.0156C1022.69 12.0156 1020 14.7031 1020 18.0156C1020 21.3281 1022.69 24.0156 1026 24.0156Z" stroke="#2E3343" stroke-width="2.25" stroke-linecap="round" stroke-linejoin="round"/>
<path d="M1011 17.9688C1020.14 1.98047 1031.86 1.99609 1041 17.9688" stroke="#2E3343" stroke-width="2.25" stroke-linecap="round" stroke-linejoin="round"/>
<path d="M1041 18.0156C1031.86 34.0039 1020.14 33.9883 1011 18.0156" stroke="#2E3343" stroke-width="2.25" stroke-linecap="round" stroke-linejoin="round"/>
<path d="M1077 18C1077 26.2852 1070.29 33 1062 33C1053.71 33 1047 26.2852 1047 18C1047 9.71484 1053.71 3 1062 3C1070.29 3 1077 9.71484 1077 18Z" fill="#2E3343" stroke="black" stroke-width="3"/>
<path d="M1069.17 14.5508L1060.66 23.0547C1060.45 23.2656 1060.17 23.3867 1059.87 23.3867C1059.57 23.3867 1059.29 23.2656 1059.07 23.0547L1054.83 18.8086C1054.39 18.375 1054.39 17.6562 1054.83 17.2187C1055.27 16.7852 1055.98 16.7852 1056.42 17.2187L1059.87 20.6719L1067.58 12.9609C1068.02 12.5234 1068.73 12.5234 1069.17 12.9609C1069.61 13.3945 1069.61 14.1016 1069.17 14.5508Z" fill="#F1F3F4"/>
<g clip-path="url(#clip4_0_1)">
<path d="M1136.77 23.6953C1136.77 25.1875 1135.55 26.3984 1134.06 26.3984C1132.57 26.3984 1131.36 25.1875 1131.36 23.6953C1131.36 22.2031 1132.57 20.9961 1134.06 20.9961C1135.55 20.9961 1136.77 22.2031 1136.77 23.6953Z" fill="#FFBA3A" stroke="#FFBA3A" stroke-width="0.0752941"/>
<path d="M1135.32 9.60156H1132.92C1132.13 9.60156 1131.48 10.2539 1131.48 11.043V18.7187C1131.48 19.5078 1132.13 20.1602 1132.92 20.1602H1135.32C1136.11 20.1602 1136.77 19.5078 1136.77 18.7187V11.043C1136.77 10.2539 1136.11 9.60156 1135.32 9.60156Z" fill="#FFBA3A" stroke="#FFBA3A" stroke-width="0.0752941"/>
<path d="M1134 0C1124.05 0 1116 8.05078 1116 18C1116 27.9492 1124.05 36 1134 36C1143.95 36 1152 27.9492 1152 18C1152 8.05078 1143.95 0 1134 0ZM1134.02 30.8516C1126.93 30.8516 1121.17 25.1016 1121.17 18.0039C1121.17 10.9102 1126.92 5.16016 1134.02 5.16016C1141.11 5.16016 1146.86 10.9102 1146.86 18.0039C1146.86 25.1016 1141.11 30.8516 1134.02 30.8516Z" fill="#FFBA3A" stroke="#FFBA3A" stroke-width="0.0752941"/>
</g>
<defs>
<clipPath id="clip0_0_1">
<rect width="36" height="36" fill="white" transform="translate(252)"/>
</clipPath>
<clipPath id="clip1_0_1">
<rect width="36" height="36" fill="white" transform="translate(396)"/>
</clipPath>
<clipPath id="clip2_0_1">
<rect width="36" height="36" fill="white" transform="translate(468)"/>
</clipPath>
<clipPath id="clip3_0_1">
<rect width="36" height="36" fill="white" transform="translate(756)"/>
</clipPath>
<clipPath id="clip4_0_1">
<rect width="36" height="36" fill="white" transform="translate(1116)"/>
</clipPath>
</defs>
</svg>
